<?xml version="1.0" encoding="UTF-8" standalone="no"?>
<!DOCTYPE svg PUBLIC "-//W3C//DTD SVG 1.1//EN"
 "http://www.w3.org/Graphics/SVG/1.1/DTD/svg11.dtd">
<!-- Generated by graphviz version 2.39.20160302.1709 (20160302.1709)
 -->
<!-- Title: G Pages: 1 -->
<svg width="332pt" height="412pt"
 viewBox="0.00 0.00 331.89 412.00" xmlns="http://www.w3.org/2000/svg" xmlns:xlink="http://www.w3.org/1999/xlink">
<g id="graph0" class="graph" transform="scale(1 1) rotate(0) translate(4 408)">
<title>G</title>
<polygon fill="white" stroke="transparent" points="-4,4 -4,-408 327.893,-408 327.893,4 -4,4"/>
<g id="clust1" class="cluster">
<title>cluster_Global</title>
<path fill="none" stroke="gray" d="M141.893,-8C141.893,-8 303.893,-8 303.893,-8 309.893,-8 315.893,-14 315.893,-20 315.893,-20 315.893,-384 315.893,-384 315.893,-390 309.893,-396 303.893,-396 303.893,-396 141.893,-396 141.893,-396 135.893,-396 129.893,-390 129.893,-384 129.893,-384 129.893,-20 129.893,-20 129.893,-14 135.893,-8 141.893,-8"/>
<text text-anchor="middle" x="222.893" y="-383.2" font-family="Times,serif" font-size="11.00" fill="gray">Global</text>
</g>
<g id="clust2" class="cluster">
<title>cluster_\SA</title>
<path fill="none" stroke="gray" d="M149.893,-16C149.893,-16 295.893,-16 295.893,-16 301.893,-16 307.893,-22 307.893,-28 307.893,-28 307.893,-356 307.893,-356 307.893,-362 301.893,-368 295.893,-368 295.893,-368 149.893,-368 149.893,-368 143.893,-368 137.893,-362 137.893,-356 137.893,-356 137.893,-28 137.893,-28 137.893,-22 143.893,-16 149.893,-16"/>
<text text-anchor="middle" x="222.893" y="-355.2" font-family="Times,serif" font-size="11.00" fill="gray">SA</text>
</g>
<g id="clust3" class="cluster">
<title>cluster_\SA\CpeSdk</title>
<path fill="none" stroke="gray" d="M157.893,-24C157.893,-24 287.893,-24 287.893,-24 293.893,-24 299.893,-30 299.893,-36 299.893,-36 299.893,-328 299.893,-328 299.893,-334 293.893,-340 287.893,-340 287.893,-340 157.893,-340 157.893,-340 151.893,-340 145.893,-334 145.893,-328 145.893,-328 145.893,-36 145.893,-36 145.893,-30 151.893,-24 157.893,-24"/>
<text text-anchor="middle" x="222.893" y="-327.2" font-family="Times,serif" font-size="11.00" fill="gray">CpeSdk</text>
</g>
<g id="clust4" class="cluster">
<title>cluster_\SA\CpeSdk\Swf</title>
<path fill="none" stroke="gray" d="M174.893,-240C174.893,-240 270.893,-240 270.893,-240 276.893,-240 282.893,-246 282.893,-252 282.893,-252 282.893,-300 282.893,-300 282.893,-306 276.893,-312 270.893,-312 270.893,-312 174.893,-312 174.893,-312 168.893,-312 162.893,-306 162.893,-300 162.893,-300 162.893,-252 162.893,-252 162.893,-246 168.893,-240 174.893,-240"/>
<text text-anchor="middle" x="222.893" y="-299.2" font-family="Times,serif" font-size="11.00" fill="gray">Swf</text>
</g>
<!-- \\SA\\CpeSdk\\Swf\\CpeSfnHandler -->
<g id="node1" class="node">
<title>\\SA\\CpeSdk\\Swf\\CpeSfnHandler</title>
<polygon fill="none" stroke="black" points="274.893,-284 170.893,-284 170.893,-248 274.893,-248 274.893,-284"/>
<text text-anchor="middle" x="222.893" y="-263.2" font-family="Courier,monospace" font-size="11.00">CpeSfnHandler</text>
</g>
<!-- \\SA\\CpeSdk\\CpeActivity -->
<g id="node2" class="node">
<title>\\SA\\CpeSdk\\CpeActivity</title>
<polygon fill="none" stroke="black" points="268.393,-230 177.393,-230 177.393,-194 268.393,-194 268.393,-230"/>
<text text-anchor="middle" x="222.893" y="-209.2" font-family="Courier,monospace" font-size="11.00">CpeActivity</text>
</g>
<!-- \\SA\\CpeSdk\\CpeException -->
<g id="node3" class="node">
<title>\\SA\\CpeSdk\\CpeException</title>
<polygon fill="none" stroke="black" points="271.893,-176 173.893,-176 173.893,-140 271.893,-140 271.893,-176"/>
<text text-anchor="middle" x="222.893" y="-155.2" font-family="Courier,monospace" font-size="11.00">CpeException</text>
</g>
<!-- \\Exception -->
<g id="node6" class="node">
<title>\\Exception</title>
<ellipse fill="none" stroke="black" cx="40.9464" cy="-158" rx="40.8928" ry="18"/>
<text text-anchor="middle" x="40.9464" y="-154.3" font-family="Times,serif" font-size="14.00" fill="gray">xception</text>
</g>
<!-- \\SA\\CpeSdk\\CpeException&#45;&gt;\\Exception -->
<g id="edge1" class="edge">
<title>\\SA\\CpeSdk\\CpeException&#45;&gt;\\Exception</title>
<path fill="none" stroke="black" d="M173.655,-158C148.403,-158 117.674,-158 92.1466,-158"/>
<polygon fill="none" stroke="black" points="91.9196,-154.5 81.9195,-158 91.9195,-161.5 91.9196,-154.5"/>
</g>
<!-- \\SA\\CpeSdk\\CpeLogger -->
<g id="node4" class="node">
<title>\\SA\\CpeSdk\\CpeLogger</title>
<polygon fill="none" stroke="black" points="261.393,-122 184.393,-122 184.393,-86 261.393,-86 261.393,-122"/>
<text text-anchor="middle" x="222.893" y="-101.2" font-family="Courier,monospace" font-size="11.00">CpeLogger</text>
</g>
<!-- \\SA\\CpeSdk\\CpeClientInterface -->
<g id="node5" class="node">
<title>\\SA\\CpeSdk\\CpeClientInterface</title>
<polygon fill="none" stroke="black" points="291.893,-68 153.893,-68 153.893,-32 291.893,-32 291.893,-68"/>
<text text-anchor="middle" x="222.893" y="-47.2" font-family="Courier,monospace" font-size="11.00">CpeClientInterface</text>
</g>
</g>
</svg>
