<?xml version="1.0" encoding="UTF-8" standalone="no"?>
<!DOCTYPE svg PUBLIC "-//W3C//DTD SVG 1.1//EN"
 "http://www.w3.org/Graphics/SVG/1.1/DTD/svg11.dtd">
<!-- Generated by graphviz version 2.39.20160302.1709 (20160302.1709)
 -->
<!-- Title: G Pages: 1 -->
<svg width="320pt" height="492pt"
 viewBox="0.00 0.00 319.89 492.00" xmlns="http://www.w3.org/2000/svg" xmlns:xlink="http://www.w3.org/1999/xlink">
<g id="graph0" class="graph" transform="scale(1 1) rotate(0) translate(4 488)">
<title>G</title>
<polygon fill="white" stroke="transparent" points="-4,4 -4,-488 315.893,-488 315.893,4 -4,4"/>
<g id="clust1" class="cluster">
<title>cluster_Global</title>
<path fill="none" stroke="gray" d="M140.893,-8C140.893,-8 291.893,-8 291.893,-8 297.893,-8 303.893,-14 303.893,-20 303.893,-20 303.893,-464 303.893,-464 303.893,-470 297.893,-476 291.893,-476 291.893,-476 140.893,-476 140.893,-476 134.893,-476 128.893,-470 128.893,-464 128.893,-464 128.893,-20 128.893,-20 128.893,-14 134.893,-8 140.893,-8"/>
<text text-anchor="middle" x="216.393" y="-463.2" font-family="Times,serif" font-size="11.00" fill="gray">Global</text>
</g>
<g id="clust2" class="cluster">
<title>cluster_\SA</title>
<path fill="none" stroke="gray" d="M148.893,-16C148.893,-16 283.893,-16 283.893,-16 289.893,-16 295.893,-22 295.893,-28 295.893,-28 295.893,-436 295.893,-436 295.893,-442 289.893,-448 283.893,-448 283.893,-448 148.893,-448 148.893,-448 142.893,-448 136.893,-442 136.893,-436 136.893,-436 136.893,-28 136.893,-28 136.893,-22 142.893,-16 148.893,-16"/>
<text text-anchor="middle" x="216.393" y="-435.2" font-family="Times,serif" font-size="11.00" fill="gray">SA</text>
</g>
<g id="clust3" class="cluster">
<title>cluster_\SA\CpeSdk</title>
<path fill="none" stroke="gray" d="M156.893,-24C156.893,-24 275.893,-24 275.893,-24 281.893,-24 287.893,-30 287.893,-36 287.893,-36 287.893,-408 287.893,-408 287.893,-414 281.893,-420 275.893,-420 275.893,-420 156.893,-420 156.893,-420 150.893,-420 144.893,-414 144.893,-408 144.893,-408 144.893,-36 144.893,-36 144.893,-30 150.893,-24 156.893,-24"/>
<text text-anchor="middle" x="216.393" y="-407.2" font-family="Times,serif" font-size="11.00" fill="gray">CpeSdk</text>
</g>
<g id="clust4" class="cluster">
<title>cluster_\SA\CpeSdk\Sqs</title>
<path fill="none" stroke="gray" d="M164.893,-266C164.893,-266 267.893,-266 267.893,-266 273.893,-266 279.893,-272 279.893,-278 279.893,-278 279.893,-380 279.893,-380 279.893,-386 273.893,-392 267.893,-392 267.893,-392 164.893,-392 164.893,-392 158.893,-392 152.893,-386 152.893,-380 152.893,-380 152.893,-278 152.893,-278 152.893,-272 158.893,-266 164.893,-266"/>
<text text-anchor="middle" x="216.393" y="-379.2" font-family="Times,serif" font-size="11.00" fill="gray">Sqs</text>
</g>
<g id="clust5" class="cluster">
<title>cluster_\SA\CpeSdk\Swf</title>
<path fill="none" stroke="gray" d="M168.393,-186C168.393,-186 264.393,-186 264.393,-186 270.393,-186 276.393,-192 276.393,-198 276.393,-198 276.393,-246 276.393,-246 276.393,-252 270.393,-258 264.393,-258 264.393,-258 168.393,-258 168.393,-258 162.393,-258 156.393,-252 156.393,-246 156.393,-246 156.393,-198 156.393,-198 156.393,-192 162.393,-186 168.393,-186"/>
<text text-anchor="middle" x="216.393" y="-245.2" font-family="Times,serif" font-size="11.00" fill="gray">Swf</text>
</g>
<!-- \\SA\\CpeSdk\\Sqs\\CpeSqsListener -->
<g id="node1" class="node">
<title>\\SA\\CpeSdk\\Sqs\\CpeSqsListener</title>
<polygon fill="none" stroke="black" points="271.893,-364 160.893,-364 160.893,-328 271.893,-328 271.893,-364"/>
<text text-anchor="middle" x="216.393" y="-343.2" font-family="Courier,monospace" font-size="11.00">CpeSqsListener</text>
</g>
<!-- \\SA\\CpeSdk\\Sqs\\CpeSqsWriter -->
<g id="node2" class="node">
<title>\\SA\\CpeSdk\\Sqs\\CpeSqsWriter</title>
<polygon fill="none" stroke="black" points="265.393,-310 167.393,-310 167.393,-274 265.393,-274 265.393,-310"/>
<text text-anchor="middle" x="216.393" y="-289.2" font-family="Courier,monospace" font-size="11.00">CpeSqsWriter</text>
</g>
<!-- \\SA\\CpeSdk\\Swf\\CpeSwfHandler -->
<g id="node3" class="node">
<title>\\SA\\CpeSdk\\Swf\\CpeSwfHandler</title>
<polygon fill="none" stroke="black" points="268.393,-230 164.393,-230 164.393,-194 268.393,-194 268.393,-230"/>
<text text-anchor="middle" x="216.393" y="-209.2" font-family="Courier,monospace" font-size="11.00">CpeSwfHandler</text>
</g>
<!-- \\SA\\CpeSdk\\CpeJsonValidator -->
<g id="node4" class="node">
<title>\\SA\\CpeSdk\\CpeJsonValidator</title>
<polygon fill="none" stroke="black" points="278.893,-176 153.893,-176 153.893,-140 278.893,-140 278.893,-176"/>
<text text-anchor="middle" x="216.393" y="-155.2" font-family="Courier,monospace" font-size="11.00">CpeJsonValidator</text>
</g>
<!-- \\SA\\CpeSdk\\CpeException -->
<g id="node5" class="node">
<title>\\SA\\CpeSdk\\CpeException</title>
<polygon fill="none" stroke="black" points="265.393,-122 167.393,-122 167.393,-86 265.393,-86 265.393,-122"/>
<text text-anchor="middle" x="216.393" y="-101.2" font-family="Courier,monospace" font-size="11.00">CpeException</text>
</g>
<!-- \\Exception -->
<g id="node7" class="node">
<title>\\Exception</title>
<ellipse fill="none" stroke="black" cx="40.9464" cy="-104" rx="40.8928" ry="18"/>
<text text-anchor="middle" x="40.9464" y="-100.3" font-family="Times,serif" font-size="14.00" fill="gray">xception</text>
</g>
<!-- \\SA\\CpeSdk\\CpeException&#45;&gt;\\Exception -->
<g id="edge1" class="edge">
<title>\\SA\\CpeSdk\\CpeException&#45;&gt;\\Exception</title>
<path fill="none" stroke="black" d="M167.054,-104C143.658,-104 115.724,-104 92.1001,-104"/>
<polygon fill="none" stroke="black" points="91.9242,-100.5 81.9242,-104 91.9241,-107.5 91.9242,-100.5"/>
</g>
<!-- \\SA\\CpeSdk\\CpeActivity -->
<g id="node6" class="node">
<title>\\SA\\CpeSdk\\CpeActivity</title>
<polygon fill="none" stroke="black" points="261.893,-68 170.893,-68 170.893,-32 261.893,-32 261.893,-68"/>
<text text-anchor="middle" x="216.393" y="-47.2" font-family="Courier,monospace" font-size="11.00">CpeActivity</text>
</g>
</g>
</svg>
