<?xml version="1.0" encoding="UTF-8" standalone="no"?>
<!DOCTYPE svg PUBLIC "-//W3C//DTD SVG 1.1//EN"
 "http://www.w3.org/Graphics/SVG/1.1/DTD/svg11.dtd">
<!-- Generated by graphviz version 2.39.20150717.1408 (20150717.1408)
 -->
<!-- Title: G Pages: 1 -->
<svg width="335pt" height="546pt"
 viewBox="0.00 0.00 335.49 546.00" xmlns="http://www.w3.org/2000/svg" xmlns:xlink="http://www.w3.org/1999/xlink">
<g id="graph0" class="graph" transform="scale(1 1) rotate(0) translate(4 542)">
<title>G</title>
<polygon fill="white" stroke="transparent" points="-4,4 -4,-542 331.491,-542 331.491,4 -4,4"/>
<g id="clust1" class="cluster">
<title>cluster_Global</title>
<path fill="none" stroke="gray" d="M156.491,-8C156.491,-8 307.491,-8 307.491,-8 313.491,-8 319.491,-14 319.491,-20 319.491,-20 319.491,-518 319.491,-518 319.491,-524 313.491,-530 307.491,-530 307.491,-530 156.491,-530 156.491,-530 150.491,-530 144.491,-524 144.491,-518 144.491,-518 144.491,-20 144.491,-20 144.491,-14 150.491,-8 156.491,-8"/>
<text text-anchor="middle" x="231.991" y="-517.2" font-family="Times,serif" font-size="11.00" fill="gray">Global</text>
</g>
<g id="clust2" class="cluster">
<title>cluster_\SA</title>
<path fill="none" stroke="gray" d="M164.491,-16C164.491,-16 299.491,-16 299.491,-16 305.491,-16 311.491,-22 311.491,-28 311.491,-28 311.491,-490 311.491,-490 311.491,-496 305.491,-502 299.491,-502 299.491,-502 164.491,-502 164.491,-502 158.491,-502 152.491,-496 152.491,-490 152.491,-490 152.491,-28 152.491,-28 152.491,-22 158.491,-16 164.491,-16"/>
<text text-anchor="middle" x="231.991" y="-489.2" font-family="Times,serif" font-size="11.00" fill="gray">SA</text>
</g>
<g id="clust3" class="cluster">
<title>cluster_\SA\CpeSdk</title>
<path fill="none" stroke="gray" d="M172.491,-24C172.491,-24 291.491,-24 291.491,-24 297.491,-24 303.491,-30 303.491,-36 303.491,-36 303.491,-462 303.491,-462 303.491,-468 297.491,-474 291.491,-474 291.491,-474 172.491,-474 172.491,-474 166.491,-474 160.491,-468 160.491,-462 160.491,-462 160.491,-36 160.491,-36 160.491,-30 166.491,-24 172.491,-24"/>
<text text-anchor="middle" x="231.991" y="-461.2" font-family="Times,serif" font-size="11.00" fill="gray">CpeSdk</text>
</g>
<g id="clust4" class="cluster">
<title>cluster_\SA\CpeSdk\Swf</title>
<path fill="none" stroke="gray" d="M183.991,-374C183.991,-374 279.991,-374 279.991,-374 285.991,-374 291.991,-380 291.991,-386 291.991,-386 291.991,-434 291.991,-434 291.991,-440 285.991,-446 279.991,-446 279.991,-446 183.991,-446 183.991,-446 177.991,-446 171.991,-440 171.991,-434 171.991,-434 171.991,-386 171.991,-386 171.991,-380 177.991,-374 183.991,-374"/>
<text text-anchor="middle" x="231.991" y="-433.2" font-family="Times,serif" font-size="11.00" fill="gray">Swf</text>
</g>
<g id="clust5" class="cluster">
<title>cluster_\SA\CpeSdk\Sqs</title>
<path fill="none" stroke="gray" d="M180.491,-240C180.491,-240 283.491,-240 283.491,-240 289.491,-240 295.491,-246 295.491,-252 295.491,-252 295.491,-354 295.491,-354 295.491,-360 289.491,-366 283.491,-366 283.491,-366 180.491,-366 180.491,-366 174.491,-366 168.491,-360 168.491,-354 168.491,-354 168.491,-252 168.491,-252 168.491,-246 174.491,-240 180.491,-240"/>
<text text-anchor="middle" x="231.991" y="-353.2" font-family="Times,serif" font-size="11.00" fill="gray">Sqs</text>
</g>
<!-- \\SA\\CpeSdk\\Swf\\CpeSwfHandler -->
<g id="node1" class="node">
<title>\\SA\\CpeSdk\\Swf\\CpeSwfHandler</title>
<polygon fill="none" stroke="black" points="283.991,-418 179.991,-418 179.991,-382 283.991,-382 283.991,-418"/>
<text text-anchor="middle" x="231.991" y="-397.2" font-family="Courier,monospace" font-size="11.00">CpeSwfHandler</text>
</g>
<!-- \\SA\\CpeSdk\\Sqs\\CpeSqsWriter -->
<g id="node2" class="node">
<title>\\SA\\CpeSdk\\Sqs\\CpeSqsWriter</title>
<polygon fill="none" stroke="black" points="280.991,-338 182.991,-338 182.991,-302 280.991,-302 280.991,-338"/>
<text text-anchor="middle" x="231.991" y="-317.2" font-family="Courier,monospace" font-size="11.00">CpeSqsWriter</text>
</g>
<!-- \\SA\\CpeSdk\\Sqs\\CpeSqsListener -->
<g id="node3" class="node">
<title>\\SA\\CpeSdk\\Sqs\\CpeSqsListener</title>
<polygon fill="none" stroke="black" points="287.491,-284 176.491,-284 176.491,-248 287.491,-248 287.491,-284"/>
<text text-anchor="middle" x="231.991" y="-263.2" font-family="Courier,monospace" font-size="11.00">CpeSqsListener</text>
</g>
<!-- \\SA\\CpeSdk\\CpeLogger -->
<g id="node4" class="node">
<title>\\SA\\CpeSdk\\CpeLogger</title>
<polygon fill="none" stroke="black" points="270.491,-230 193.491,-230 193.491,-194 270.491,-194 270.491,-230"/>
<text text-anchor="middle" x="231.991" y="-209.2" font-family="Courier,monospace" font-size="11.00">CpeLogger</text>
</g>
<!-- \\SA\\CpeSdk\\CpeJsonValidator -->
<g id="node5" class="node">
<title>\\SA\\CpeSdk\\CpeJsonValidator</title>
<polygon fill="none" stroke="black" points="294.491,-176 169.491,-176 169.491,-140 294.491,-140 294.491,-176"/>
<text text-anchor="middle" x="231.991" y="-155.2" font-family="Courier,monospace" font-size="11.00">CpeJsonValidator</text>
</g>
<!-- \\SA\\CpeSdk\\CpeException -->
<g id="node6" class="node">
<title>\\SA\\CpeSdk\\CpeException</title>
<polygon fill="none" stroke="black" points="280.991,-122 182.991,-122 182.991,-86 280.991,-86 280.991,-122"/>
<text text-anchor="middle" x="231.991" y="-101.2" font-family="Courier,monospace" font-size="11.00">CpeException</text>
</g>
<!-- \\Exception -->
<g id="node8" class="node">
<title>\\Exception</title>
<ellipse fill="none" stroke="black" cx="48.7457" cy="-104" rx="48.9926" ry="18"/>
<text text-anchor="middle" x="48.7457" y="-100.3" font-family="Times,serif" font-size="14.00" fill="gray">\Exception</text>
</g>
<!-- \\SA\\CpeSdk\\CpeException&#45;&gt;\\Exception -->
<g id="edge1" class="edge">
<title>\\SA\\CpeSdk\\CpeException&#45;&gt;\\Exception</title>
<path fill="none" stroke="black" d="M182.885,-104C159.787,-104 132.057,-104 107.82,-104"/>
<polygon fill="none" stroke="black" points="107.67,-100.5 97.6697,-104 107.67,-107.5 107.67,-100.5"/>
</g>
<!-- \\SA\\CpeSdk\\CpeActivity -->
<g id="node7" class="node">
<title>\\SA\\CpeSdk\\CpeActivity</title>
<polygon fill="none" stroke="black" points="277.491,-68 186.491,-68 186.491,-32 277.491,-32 277.491,-68"/>
<text text-anchor="middle" x="231.991" y="-47.2" font-family="Courier,monospace" font-size="11.00">CpeActivity</text>
</g>
</g>
</svg>
