<?xml version="1.0" encoding="UTF-8" standalone="no"?>
<!DOCTYPE svg PUBLIC "-//W3C//DTD SVG 1.1//EN"
 "http://www.w3.org/Graphics/SVG/1.1/DTD/svg11.dtd">
<!-- Generated by graphviz version 2.39.20160302.1709 (20160302.1709)
 -->
<!-- Title: G Pages: 1 -->
<svg width="320pt" height="546pt"
 viewBox="0.00 0.00 319.89 546.00" xmlns="http://www.w3.org/2000/svg" xmlns:xlink="http://www.w3.org/1999/xlink">
<g id="graph0" class="graph" transform="scale(1 1) rotate(0) translate(4 542)">
<title>G</title>
<polygon fill="white" stroke="transparent" points="-4,4 -4,-542 315.893,-542 315.893,4 -4,4"/>
<g id="clust1" class="cluster">
<title>cluster_Global</title>
<path fill="none" stroke="gray" d="M140.893,-8C140.893,-8 291.893,-8 291.893,-8 297.893,-8 303.893,-14 303.893,-20 303.893,-20 303.893,-518 303.893,-518 303.893,-524 297.893,-530 291.893,-530 291.893,-530 140.893,-530 140.893,-530 134.893,-530 128.893,-524 128.893,-518 128.893,-518 128.893,-20 128.893,-20 128.893,-14 134.893,-8 140.893,-8"/>
<text text-anchor="middle" x="216.393" y="-517.2" font-family="Times,serif" font-size="11.00" fill="gray">Global</text>
</g>
<g id="clust2" class="cluster">
<title>cluster_\SA</title>
<path fill="none" stroke="gray" d="M148.893,-16C148.893,-16 283.893,-16 283.893,-16 289.893,-16 295.893,-22 295.893,-28 295.893,-28 295.893,-490 295.893,-490 295.893,-496 289.893,-502 283.893,-502 283.893,-502 148.893,-502 148.893,-502 142.893,-502 136.893,-496 136.893,-490 136.893,-490 136.893,-28 136.893,-28 136.893,-22 142.893,-16 148.893,-16"/>
<text text-anchor="middle" x="216.393" y="-489.2" font-family="Times,serif" font-size="11.00" fill="gray">SA</text>
</g>
<g id="clust3" class="cluster">
<title>cluster_\SA\CpeSdk</title>
<path fill="none" stroke="gray" d="M156.893,-24C156.893,-24 275.893,-24 275.893,-24 281.893,-24 287.893,-30 287.893,-36 287.893,-36 287.893,-462 287.893,-462 287.893,-468 281.893,-474 275.893,-474 275.893,-474 156.893,-474 156.893,-474 150.893,-474 144.893,-468 144.893,-462 144.893,-462 144.893,-36 144.893,-36 144.893,-30 150.893,-24 156.893,-24"/>
<text text-anchor="middle" x="216.393" y="-461.2" font-family="Times,serif" font-size="11.00" fill="gray">CpeSdk</text>
</g>
<g id="clust4" class="cluster">
<title>cluster_\SA\CpeSdk\Sqs</title>
<path fill="none" stroke="gray" d="M164.893,-320C164.893,-320 267.893,-320 267.893,-320 273.893,-320 279.893,-326 279.893,-332 279.893,-332 279.893,-434 279.893,-434 279.893,-440 273.893,-446 267.893,-446 267.893,-446 164.893,-446 164.893,-446 158.893,-446 152.893,-440 152.893,-434 152.893,-434 152.893,-332 152.893,-332 152.893,-326 158.893,-320 164.893,-320"/>
<text text-anchor="middle" x="216.393" y="-433.2" font-family="Times,serif" font-size="11.00" fill="gray">Sqs</text>
</g>
<g id="clust5" class="cluster">
<title>cluster_\SA\CpeSdk\Swf</title>
<path fill="none" stroke="gray" d="M168.393,-240C168.393,-240 264.393,-240 264.393,-240 270.393,-240 276.393,-246 276.393,-252 276.393,-252 276.393,-300 276.393,-300 276.393,-306 270.393,-312 264.393,-312 264.393,-312 168.393,-312 168.393,-312 162.393,-312 156.393,-306 156.393,-300 156.393,-300 156.393,-252 156.393,-252 156.393,-246 162.393,-240 168.393,-240"/>
<text text-anchor="middle" x="216.393" y="-299.2" font-family="Times,serif" font-size="11.00" fill="gray">Swf</text>
</g>
<!-- \\SA\\CpeSdk\\Sqs\\CpeSqsListener -->
<g id="node1" class="node">
<title>\\SA\\CpeSdk\\Sqs\\CpeSqsListener</title>
<polygon fill="none" stroke="black" points="271.893,-418 160.893,-418 160.893,-382 271.893,-382 271.893,-418"/>
<text text-anchor="middle" x="216.393" y="-397.2" font-family="Courier,monospace" font-size="11.00">CpeSqsListener</text>
</g>
<!-- \\SA\\CpeSdk\\Sqs\\CpeSqsWriter -->
<g id="node2" class="node">
<title>\\SA\\CpeSdk\\Sqs\\CpeSqsWriter</title>
<polygon fill="none" stroke="black" points="265.393,-364 167.393,-364 167.393,-328 265.393,-328 265.393,-364"/>
<text text-anchor="middle" x="216.393" y="-343.2" font-family="Courier,monospace" font-size="11.00">CpeSqsWriter</text>
</g>
<!-- \\SA\\CpeSdk\\Swf\\CpeSwfHandler -->
<g id="node3" class="node">
<title>\\SA\\CpeSdk\\Swf\\CpeSwfHandler</title>
<polygon fill="none" stroke="black" points="268.393,-284 164.393,-284 164.393,-248 268.393,-248 268.393,-284"/>
<text text-anchor="middle" x="216.393" y="-263.2" font-family="Courier,monospace" font-size="11.00">CpeSwfHandler</text>
</g>
<!-- \\SA\\CpeSdk\\CpeActivity -->
<g id="node4" class="node">
<title>\\SA\\CpeSdk\\CpeActivity</title>
<polygon fill="none" stroke="black" points="261.893,-230 170.893,-230 170.893,-194 261.893,-194 261.893,-230"/>
<text text-anchor="middle" x="216.393" y="-209.2" font-family="Courier,monospace" font-size="11.00">CpeActivity</text>
</g>
<!-- \\SA\\CpeSdk\\CpeException -->
<g id="node5" class="node">
<title>\\SA\\CpeSdk\\CpeException</title>
<polygon fill="none" stroke="black" points="265.393,-176 167.393,-176 167.393,-140 265.393,-140 265.393,-176"/>
<text text-anchor="middle" x="216.393" y="-155.2" font-family="Courier,monospace" font-size="11.00">CpeException</text>
</g>
<!-- \\Exception -->
<g id="node8" class="node">
<title>\\Exception</title>
<ellipse fill="none" stroke="black" cx="40.9464" cy="-158" rx="40.8928" ry="18"/>
<text text-anchor="middle" x="40.9464" y="-154.3" font-family="Times,serif" font-size="14.00" fill="gray">xception</text>
</g>
<!-- \\SA\\CpeSdk\\CpeException&#45;&gt;\\Exception -->
<g id="edge1" class="edge">
<title>\\SA\\CpeSdk\\CpeException&#45;&gt;\\Exception</title>
<path fill="none" stroke="black" d="M167.054,-158C143.658,-158 115.724,-158 92.1001,-158"/>
<polygon fill="none" stroke="black" points="91.9242,-154.5 81.9242,-158 91.9241,-161.5 91.9242,-154.5"/>
</g>
<!-- \\SA\\CpeSdk\\CpeLogger -->
<g id="node6" class="node">
<title>\\SA\\CpeSdk\\CpeLogger</title>
<polygon fill="none" stroke="black" points="254.893,-122 177.893,-122 177.893,-86 254.893,-86 254.893,-122"/>
<text text-anchor="middle" x="216.393" y="-101.2" font-family="Courier,monospace" font-size="11.00">CpeLogger</text>
</g>
<!-- \\SA\\CpeSdk\\CpeJsonValidator -->
<g id="node7" class="node">
<title>\\SA\\CpeSdk\\CpeJsonValidator</title>
<polygon fill="none" stroke="black" points="278.893,-68 153.893,-68 153.893,-32 278.893,-32 278.893,-68"/>
<text text-anchor="middle" x="216.393" y="-47.2" font-family="Courier,monospace" font-size="11.00">CpeJsonValidator</text>
</g>
</g>
</svg>
